<svg version="1.1" id="Layer_1" xmlns="http://www.w3.org/2000/svg" xmlns:xlink="http://www.w3.org/1999/xlink" x="0px" y="0px"
	 width="100%" viewBox="0 0 500 500" enable-background="new 0 0 500 500" xml:space="preserve">
<path fill="#000000" opacity="1.000000" stroke="none" 
	d="
M455.000000,501.000000 
	C303.333374,501.000000 152.166733,501.000000 1.000081,501.000000 
	C1.000054,334.333405 1.000054,167.666824 1.000027,1.000171 
	C167.666550,1.000114 334.333099,1.000114 500.999756,1.000057 
	C500.999817,167.666519 500.999817,334.333038 500.999908,500.999756 
	C485.833344,501.000000 470.666656,501.000000 455.000000,501.000000 
M117.038902,215.971008 
	C117.038902,215.971008 117.136482,215.922226 116.829468,215.284164 
	C114.206024,215.594315 111.255531,215.257935 109.041702,216.377808 
	C106.258148,217.785904 104.077393,220.385620 100.808952,222.317154 
	C88.085403,220.431946 82.492027,226.823303 86.116241,239.400513 
	C87.422539,243.933792 89.379745,248.279480 90.425056,253.148605 
	C89.047768,256.476135 87.301880,259.702942 86.360123,263.149475 
	C83.124222,274.992004 89.593384,281.269775 102.368652,278.707581 
	C109.538132,289.828094 117.725967,290.364716 126.517227,279.057129 
	C138.002182,281.256256 145.087357,274.593750 142.009125,264.122009 
	C140.632599,259.439270 138.226883,255.059067 136.568573,249.891098 
	C137.743240,246.807846 139.127472,243.786194 140.054749,240.630249 
	C143.338455,229.454285 138.704544,223.655884 126.409424,223.965332 
	C123.776192,220.714203 122.365517,216.053589 117.038902,215.971008 
M307.287659,255.632004 
	C316.877960,254.245361 318.335632,252.800613 320.681671,242.347855 
	C320.984741,242.230240 321.285583,242.106430 321.591248,241.996033 
	C323.427795,241.332764 325.393158,240.875504 327.007446,239.859894 
	C327.382324,239.624054 326.692749,236.458420 326.269501,236.404800 
	C324.375580,236.164856 322.402802,236.593109 320.454620,236.720551 
	C318.955170,236.818649 317.287537,237.275467 315.975372,236.799255 
	C310.343231,234.755310 303.178375,236.095047 299.936340,240.086731 
	C296.875854,243.854858 297.215790,248.033173 301.077576,254.113785 
	C296.155029,258.587128 296.030823,259.525482 299.519165,265.887024 
	C294.014313,273.686737 295.786957,279.997681 304.433929,281.354797 
	C309.010773,282.073151 314.029144,281.683075 318.555725,280.586334 
	C324.234772,279.210358 327.207611,274.092468 326.570557,268.973877 
	C326.055908,264.838898 322.214081,261.872345 316.265961,261.342438 
	C313.459991,261.092499 310.587067,261.526581 307.796204,261.203735 
	C306.430420,261.045776 305.182831,259.865967 303.881714,259.148651 
	C304.729492,257.973114 305.577271,256.797577 307.287659,255.632004 
M189.380127,219.037018 
	C185.057800,219.037460 180.734833,219.084152 176.413345,219.024231 
	C172.712143,218.972931 170.542328,219.985916 170.849945,224.418091 
	C171.217361,229.711700 170.919861,235.051163 170.917572,240.370773 
	C170.914062,248.596573 170.916641,256.822357 170.916641,265.323029 
	C173.481506,265.199585 175.361435,265.109131 177.601898,265.001312 
	C177.601898,257.658539 177.601898,250.925797 177.601898,244.792908 
	C183.750702,241.716034 191.822952,247.570114 196.332535,240.616058 
	C196.205414,239.943970 196.078293,239.271881 195.951172,238.599792 
	C190.087723,238.599792 184.224274,238.599792 178.053070,238.599792 
	C178.053070,234.117477 178.053070,229.743484 178.053070,225.000336 
	C182.640900,225.000336 187.271454,224.887466 191.893478,225.037628 
	C195.323059,225.149033 197.110855,223.809235 197.165878,220.026154 
	C194.858307,219.691360 192.597610,219.363373 189.380127,219.037018 
M213.927948,248.534897 
	C213.927948,253.982529 213.927948,259.430176 213.927948,264.994324 
	C216.476273,264.994324 218.571930,264.994324 221.007919,264.994324 
	C221.007919,258.086975 220.894699,251.446289 221.109695,244.816254 
	C221.149567,243.586670 222.298019,241.588684 223.298843,241.324524 
	C230.032684,239.547211 233.893707,242.617874 234.014893,249.606049 
	C234.103287,254.702988 234.032196,259.802704 234.032196,265.004395 
	C236.443359,265.004395 238.370987,265.004395 240.673874,265.004395 
	C240.673874,258.151093 240.905090,251.546661 240.594528,244.967773 
	C240.378922,240.400085 237.674103,236.587296 233.158920,236.232437 
	C227.070724,235.753937 220.874161,236.654358 214.890411,236.954681 
	C214.536118,239.285568 214.205032,240.918747 214.060455,242.568268 
	C213.915558,244.221451 213.956848,245.890945 213.927948,248.534897 
M418.222656,249.810043 
	C424.055420,248.131561 425.070312,245.614029 421.378815,240.858734 
	C419.906830,238.962570 417.803406,237.158340 415.602417,236.303040 
	C409.631073,233.982574 401.393524,237.141434 398.065002,242.549210 
	C394.373474,248.546707 395.466064,257.401489 400.490570,262.207031 
	C405.087433,266.603577 414.298615,267.526276 419.367584,263.760559 
	C420.769775,262.718872 421.389679,260.624146 422.368500,259.012543 
	C409.796906,263.211914 403.640808,260.444092 403.233734,249.826782 
	C407.957397,249.826782 412.662384,249.826782 418.222656,249.810043 
M266.788696,253.751678 
	C268.916870,262.805481 275.864777,267.507965 284.769196,265.921173 
	C290.866699,264.834595 293.186188,262.553680 292.535339,258.284302 
	C279.995972,262.869904 273.936066,260.240814 274.159088,249.670105 
	C280.646484,249.357941 287.181641,249.043488 293.644897,248.732498 
	C294.390228,240.623383 290.455200,236.565521 283.190918,235.852783 
	C273.179108,234.870453 265.195251,244.050629 266.788696,253.751678 
M355.447144,249.762375 
	C348.969543,251.313248 345.191376,255.429810 346.178101,259.861633 
	C347.109161,264.043671 352.425903,267.096741 357.267212,265.842865 
	C360.858704,264.912781 364.152588,261.658905 368.066254,265.199585 
	C368.460693,265.556427 369.828918,264.836914 370.892670,264.581512 
	C370.892670,259.708893 370.809845,255.056152 370.914307,250.407623 
	C371.035950,244.996414 370.176300,239.748672 364.796692,237.374191 
	C359.259186,234.930023 353.391693,234.841080 347.967865,238.437973 
	C349.419312,242.404007 352.191101,241.064545 354.739777,240.767395 
	C361.405548,239.990250 364.209503,242.564178 363.610382,248.648178 
	C361.150604,248.995010 358.720673,249.337646 355.447144,249.762375 
M265.733856,262.850037 
	C266.545227,258.108154 263.103180,259.999115 261.420227,260.441620 
	C257.652557,261.432251 255.897446,259.876190 255.738144,256.446625 
	C255.509583,251.525742 255.679855,246.586334 255.679855,241.620270 
	C263.354675,242.358902 264.402130,241.749451 264.217560,236.870728 
	C261.651550,236.755157 259.071106,236.638916 256.385864,236.517960 
	C256.232513,233.456741 256.103821,230.888336 255.977386,228.364365 
	C249.423157,227.876434 249.423157,227.876434 248.818512,234.890533 
	C246.694504,236.924362 245.266861,238.291397 243.839218,239.658463 
	C245.419144,240.676620 246.999069,241.694778 248.999756,242.984100 
	C248.999756,246.739273 249.078369,251.219391 248.976669,255.695419 
	C248.883347,259.802948 249.859207,263.677368 253.785568,265.276825 
	C257.627777,266.842010 261.870880,266.941467 265.733856,262.850037 
M378.628082,232.797516 
	C378.592804,235.194534 378.116455,236.991837 374.991028,236.879272 
	C374.262543,236.853027 372.836578,238.609573 372.887726,239.477707 
	C372.938629,240.341492 374.336243,241.319977 375.349396,241.865204 
	C376.032196,242.232620 377.072754,241.935211 377.645782,241.935211 
	C377.998901,248.290131 377.939911,254.129669 378.761322,259.842621 
	C379.426422,264.468170 383.364807,266.517242 389.021179,265.970215 
	C392.347198,265.648560 395.308441,264.718689 394.803955,260.098969 
	C393.587585,260.098969 392.415588,259.963440 391.284790,260.121826 
	C385.645538,260.911682 384.648010,260.267578 384.544098,254.464386 
	C384.467926,250.208862 384.963959,245.943100 385.205536,241.672119 
	C389.191681,241.897705 393.623993,243.243042 393.936768,236.556686 
	C390.878662,236.556686 388.135620,236.556686 385.124420,236.556686 
	C385.124420,233.501907 385.124420,230.833618 385.124420,228.007568 
	C382.076843,228.506073 378.061676,226.544327 378.628082,232.797516 
M335.776581,253.502762 
	C333.789764,244.399780 338.977478,241.646576 346.638641,241.816269 
	C346.638641,239.545547 346.638641,237.948578 346.638641,235.717804 
	C341.015350,236.539429 335.805725,239.448380 329.655823,235.956497 
	C329.655823,246.370743 329.655823,255.545853 329.655823,264.735352 
	C335.551788,265.731781 335.761749,265.571411 335.786835,259.970398 
	C335.795044,258.138397 335.782562,256.306335 335.776581,253.502762 
M207.770157,264.609650 
	C207.770157,255.525650 207.770157,246.441650 207.770157,237.044464 
	C205.780243,237.044464 203.871826,237.044464 201.486908,237.044464 
	C201.486908,246.429901 201.486908,255.696503 201.486908,265.304810 
	C203.798813,265.200348 205.428040,265.126709 207.770157,264.609650 
M208.596497,222.184006 
	C207.490021,221.578415 206.083435,220.222382 205.338348,220.520401 
	C203.688278,221.180313 201.746017,222.421341 201.148361,223.915527 
	C200.782135,224.831131 202.760880,227.871719 203.553909,227.822449 
	C205.327103,227.712311 207.097519,226.381470 208.684631,225.281693 
	C209.079254,225.008240 208.771835,223.721649 208.596497,222.184006 
z"/>
<path fill="#0B72D4" opacity="1.000000" stroke="none" 
	d="
M136.288239,250.541580 
	C138.226883,255.059067 140.632599,259.439270 142.009125,264.122009 
	C145.087357,274.593750 138.002182,281.256256 125.879654,278.990540 
	C115.242035,274.796478 106.655258,268.585144 98.974899,260.802124 
	C96.352348,257.915131 93.696121,255.312958 91.039902,252.710785 
	C89.379745,248.279480 87.422539,243.933792 86.116241,239.400513 
	C82.492027,226.823303 88.085403,220.431946 101.364304,222.614349 
	C108.023476,226.519043 114.311104,229.855667 120.166641,233.829056 
	C124.086708,236.489075 127.393181,240.053345 131.061432,243.569992 
	C132.861832,246.131851 134.575027,248.336716 136.288239,250.541580 
z"/>
<path fill="#EDEDEF" opacity="1.000000" stroke="none" 
	d="
M306.856323,255.627014 
	C305.577271,256.797577 304.729492,257.973114 303.881714,259.148651 
	C305.182831,259.865967 306.430420,261.045776 307.796204,261.203735 
	C310.587067,261.526581 313.459991,261.092499 316.265961,261.342438 
	C322.214081,261.872345 326.055908,264.838898 326.570557,268.973877 
	C327.207611,274.092468 324.234772,279.210358 318.555725,280.586334 
	C314.029144,281.683075 309.010773,282.073151 304.433929,281.354797 
	C295.786957,279.997681 294.014313,273.686737 299.519165,265.887024 
	C296.030823,259.525482 296.155029,258.587128 301.077576,254.113785 
	C297.215790,248.033173 296.875854,243.854858 299.936340,240.086731 
	C303.178375,236.095047 310.343231,234.755310 315.975372,236.799255 
	C317.287537,237.275467 318.955170,236.818649 320.454620,236.720551 
	C322.402802,236.593109 324.375580,236.164856 326.269501,236.404800 
	C326.692749,236.458420 327.382324,239.624054 327.007446,239.859894 
	C325.393158,240.875504 323.427795,241.332764 321.591248,241.996033 
	C321.285583,242.106430 320.984741,242.230240 320.682892,242.351013 
	C318.335632,252.800613 316.877960,254.245361 306.856323,255.627014 
M319.504517,273.041931 
	C320.353271,268.457031 316.854462,268.294098 314.011871,268.040161 
	C310.445068,267.721527 306.828186,267.963440 303.127258,267.963440 
	C301.564972,273.343964 302.171875,275.185150 306.306061,276.986084 
	C311.340912,279.179382 316.584198,277.869873 319.504517,273.041931 
M309.552887,250.998474 
	C314.527893,250.118988 314.779083,246.312622 313.769623,242.791458 
	C313.391479,241.472305 310.307648,240.310242 308.433014,240.272034 
	C307.319214,240.249313 305.480103,242.404572 305.158569,243.846313 
	C304.482208,246.879364 305.310059,249.707382 309.552887,250.998474 
z"/>
<path fill="#F3F3F5" opacity="1.000000" stroke="none" 
	d="
M189.858521,219.036194 
	C192.597610,219.363373 194.858307,219.691360 197.165878,220.026154 
	C197.110855,223.809235 195.323059,225.149033 191.893478,225.037628 
	C187.271454,224.887466 182.640900,225.000336 178.053070,225.000336 
	C178.053070,229.743484 178.053070,234.117477 178.053070,238.599792 
	C184.224274,238.599792 190.087723,238.599792 195.951172,238.599792 
	C196.078293,239.271881 196.205414,239.943970 196.332535,240.616058 
	C191.822952,247.570114 183.750702,241.716034 177.601898,244.792908 
	C177.601898,250.925797 177.601898,257.658539 177.601898,265.001312 
	C175.361435,265.109131 173.481506,265.199585 170.916641,265.323029 
	C170.916641,256.822357 170.914062,248.596573 170.917572,240.370773 
	C170.919861,235.051163 171.217361,229.711700 170.849945,224.418091 
	C170.542328,219.985916 172.712143,218.972931 176.413345,219.024231 
	C180.734833,219.084152 185.057800,219.037460 189.858521,219.036194 
z"/>
<path fill="#F3F3F5" opacity="1.000000" stroke="none" 
	d="
M213.922241,248.044098 
	C213.956848,245.890945 213.915558,244.221451 214.060455,242.568268 
	C214.205032,240.918747 214.536118,239.285568 214.890411,236.954681 
	C220.874161,236.654358 227.070724,235.753937 233.158920,236.232437 
	C237.674103,236.587296 240.378922,240.400085 240.594528,244.967773 
	C240.905090,251.546661 240.673874,258.151093 240.673874,265.004395 
	C238.370987,265.004395 236.443359,265.004395 234.032196,265.004395 
	C234.032196,259.802704 234.103287,254.702988 234.014893,249.606049 
	C233.893707,242.617874 230.032684,239.547211 223.298843,241.324524 
	C222.298019,241.588684 221.149567,243.586670 221.109695,244.816254 
	C220.894699,251.446289 221.007919,258.086975 221.007919,264.994324 
	C218.571930,264.994324 216.476273,264.994324 213.927948,264.994324 
	C213.927948,259.430176 213.927948,253.982529 213.922241,248.044098 
z"/>
<path fill="#EDEDEF" opacity="1.000000" stroke="none" 
	d="
M417.795044,249.818420 
	C412.662384,249.826782 407.957397,249.826782 403.233734,249.826782 
	C403.640808,260.444092 409.796906,263.211914 422.368500,259.012543 
	C421.389679,260.624146 420.769775,262.718872 419.367584,263.760559 
	C414.298615,267.526276 405.087433,266.603577 400.490570,262.207031 
	C395.466064,257.401489 394.373474,248.546707 398.065002,242.549210 
	C401.393524,237.141434 409.631073,233.982574 415.602417,236.303040 
	C417.803406,237.158340 419.906830,238.962570 421.378815,240.858734 
	C425.070312,245.614029 424.055420,248.131561 417.795044,249.818420 
M408.542877,240.660889 
	C407.149506,241.840179 405.756134,243.019485 403.586945,244.855423 
	C408.846375,244.855423 412.853271,244.855423 417.238129,244.855423 
	C415.826019,240.521744 413.275208,239.209656 408.542877,240.660889 
z"/>
<path fill="#EDEDEF" opacity="1.000000" stroke="none" 
	d="
M266.717468,253.361603 
	C265.195251,244.050629 273.179108,234.870453 283.190918,235.852783 
	C290.455200,236.565521 294.390228,240.623383 293.644897,248.732498 
	C287.181641,249.043488 280.646484,249.357941 274.159088,249.670105 
	C273.936066,260.240814 279.995972,262.869904 292.535339,258.284302 
	C293.186188,262.553680 290.866699,264.834595 284.769196,265.921173 
	C275.864777,267.507965 268.916870,262.805481 266.717468,253.361603 
M284.274170,245.074326 
	C285.490448,244.990005 286.706696,244.905685 287.922974,244.821365 
	C288.107819,244.289322 288.292694,243.757278 288.477539,243.225220 
	C286.399689,242.139053 284.255829,240.081482 282.260956,240.216949 
	C279.863098,240.379776 277.591949,242.409164 275.265961,243.630402 
	C275.500366,244.117310 275.734741,244.604218 275.969116,245.091125 
	C278.442688,245.091125 280.916290,245.091125 284.274170,245.074326 
z"/>
<path fill="#EDEDEF" opacity="1.000000" stroke="none" 
	d="
M355.868958,249.721329 
	C358.720673,249.337646 361.150604,248.995010 363.610382,248.648178 
	C364.209503,242.564178 361.405548,239.990250 354.739777,240.767395 
	C352.191101,241.064545 349.419312,242.404007 347.967865,238.437973 
	C353.391693,234.841080 359.259186,234.930023 364.796692,237.374191 
	C370.176300,239.748672 371.035950,244.996414 370.914307,250.407623 
	C370.809845,255.056152 370.892670,259.708893 370.892670,264.581512 
	C369.828918,264.836914 368.460693,265.556427 368.066254,265.199585 
	C364.152588,261.658905 360.858704,264.912781 357.267212,265.842865 
	C352.425903,267.096741 347.109161,264.043671 346.178101,259.861633 
	C345.191376,255.429810 348.969543,251.313248 355.868958,249.721329 
M353.143402,257.781525 
	C353.403839,262.277588 356.492249,261.505096 359.291229,260.975891 
	C364.336182,260.022064 364.999329,256.721436 363.382355,251.445740 
	C359.848419,253.373352 356.543518,255.176071 353.143402,257.781525 
z"/>
<path fill="#EDEDEF" opacity="1.000000" stroke="none" 
	d="
M265.497223,263.191223 
	C261.870880,266.941467 257.627777,266.842010 253.785568,265.276825 
	C249.859207,263.677368 248.883347,259.802948 248.976669,255.695419 
	C249.078369,251.219391 248.999756,246.739273 248.999756,242.984100 
	C246.999069,241.694778 245.419144,240.676620 243.839203,239.658447 
	C245.266861,238.291397 246.694504,236.924362 248.818512,234.890533 
	C249.423157,227.876434 249.423157,227.876434 255.977386,228.364365 
	C256.103821,230.888336 256.232513,233.456741 256.385864,236.517960 
	C259.071106,236.638916 261.651550,236.755157 264.217560,236.870728 
	C264.402130,241.749451 263.354675,242.358902 255.679855,241.620270 
	C255.679855,246.586334 255.509583,251.525742 255.738144,256.446625 
	C255.897446,259.876190 257.652557,261.432251 261.420227,260.441620 
	C263.103180,259.999115 266.545227,258.108154 265.497223,263.191223 
z"/>
<path fill="#F3F3F5" opacity="1.000000" stroke="none" 
	d="
M378.628357,232.365799 
	C378.061676,226.544327 382.076843,228.506073 385.124420,228.007568 
	C385.124420,230.833618 385.124420,233.501907 385.124420,236.556686 
	C388.135620,236.556686 390.878662,236.556686 393.936768,236.556686 
	C393.623993,243.243042 389.191681,241.897705 385.205536,241.672119 
	C384.963959,245.943100 384.467926,250.208862 384.544098,254.464386 
	C384.648010,260.267578 385.645538,260.911682 391.284790,260.121826 
	C392.415588,259.963440 393.587585,260.098969 394.803955,260.098969 
	C395.308441,264.718689 392.347198,265.648560 389.021179,265.970215 
	C383.364807,266.517242 379.426422,264.468170 378.761322,259.842621 
	C377.939911,254.129669 377.998901,248.290131 377.645782,241.935211 
	C377.072754,241.935211 376.032196,242.232620 375.349396,241.865204 
	C374.336243,241.319977 372.938629,240.341492 372.887726,239.477707 
	C372.836578,238.609573 374.262543,236.853027 374.991028,236.879272 
	C378.116455,236.991837 378.592804,235.194534 378.628357,232.365799 
z"/>
<path fill="#E7DE1A" opacity="1.000000" stroke="none" 
	d="
M98.941238,261.086914 
	C106.655258,268.585144 115.242035,274.796478 125.497742,279.159607 
	C117.725967,290.364716 109.538132,289.828094 101.905594,278.296631 
	C100.199142,273.255432 98.864052,268.646118 97.797577,263.975464 
	C97.607513,263.143066 98.531609,262.056244 98.941238,261.086914 
z"/>
<path fill="#439669" opacity="1.000000" stroke="none" 
	d="
M98.974899,260.802124 
	C98.531609,262.056244 97.607513,263.143066 97.797577,263.975464 
	C98.864052,268.646118 100.199142,273.255432 101.584763,278.087769 
	C89.593384,281.269775 83.124222,274.992004 86.360123,263.149475 
	C87.301880,259.702942 89.047768,256.476135 90.732483,252.929688 
	C93.696121,255.312958 96.352348,257.915131 98.974899,260.802124 
z"/>
<path fill="#EDEDEF" opacity="1.000000" stroke="none" 
	d="
M335.778076,253.988525 
	C335.782562,256.306335 335.795044,258.138397 335.786835,259.970398 
	C335.761749,265.571411 335.551788,265.731781 329.655823,264.735352 
	C329.655823,255.545853 329.655823,246.370743 329.655823,235.956497 
	C335.805725,239.448380 341.015350,236.539429 346.638641,235.717804 
	C346.638641,237.948578 346.638641,239.545547 346.638641,241.816269 
	C338.977478,241.646576 333.789764,244.399780 335.778076,253.988525 
z"/>
<path fill="#439669" opacity="1.000000" stroke="none" 
	d="
M136.428406,250.216339 
	C134.575027,248.336716 132.861832,246.131851 131.040283,243.193420 
	C129.651382,236.376770 128.370834,230.293686 127.090294,224.210602 
	C138.704544,223.655884 143.338455,229.454285 140.054749,240.630249 
	C139.127472,243.786194 137.743240,246.807846 136.428406,250.216339 
z"/>
<path fill="#F3F3F5" opacity="1.000000" stroke="none" 
	d="
M207.413712,264.831360 
	C205.428040,265.126709 203.798813,265.200348 201.486908,265.304810 
	C201.486908,255.696503 201.486908,246.429901 201.486908,237.044464 
	C203.871826,237.044464 205.780243,237.044464 207.770157,237.044464 
	C207.770157,246.441650 207.770157,255.525650 207.413712,264.831360 
z"/>
<path fill="#CCDC44" opacity="1.000000" stroke="none" 
	d="
M126.749863,224.087967 
	C128.370834,230.293686 129.651382,236.376770 130.953064,242.836426 
	C127.393181,240.053345 124.086708,236.489075 120.166641,233.829056 
	C114.311104,229.855667 108.023476,226.519043 101.778091,222.691345 
	C104.077393,220.385620 106.258148,217.785904 109.041702,216.377808 
	C111.255531,215.257935 114.206024,215.594315 116.563797,215.613220 
	C111.370163,215.823029 108.004585,217.963821 106.321564,222.256165 
	C113.599258,227.158218 120.542076,231.834717 128.346710,237.091705 
	C127.877151,234.563644 127.999001,232.752670 127.226181,231.488693 
	C123.987984,226.192413 120.481705,221.060028 117.073624,215.867599 
	C122.365517,216.053589 123.776192,220.714203 126.749863,224.087967 
z"/>
<path fill="#EDEDEF" opacity="1.000000" stroke="none" 
	d="
M208.691803,222.542374 
	C208.771835,223.721649 209.079254,225.008240 208.684631,225.281693 
	C207.097519,226.381470 205.327103,227.712311 203.553909,227.822449 
	C202.760880,227.871719 200.782135,224.831131 201.148361,223.915527 
	C201.746017,222.421341 203.688278,221.180313 205.338348,220.520401 
	C206.083435,220.222382 207.490021,221.578415 208.691803,222.542374 
z"/>
<path fill="#0B0B0B" opacity="1.000000" stroke="none" 
	d="
M319.365601,273.400543 
	C316.584198,277.869873 311.340912,279.179382 306.306061,276.986084 
	C302.171875,275.185150 301.564972,273.343964 303.127258,267.963440 
	C306.828186,267.963440 310.445068,267.721527 314.011871,268.040161 
	C316.854462,268.294098 320.353271,268.457031 319.365601,273.400543 
z"/>
<path fill="#0B0B0B" opacity="1.000000" stroke="none" 
	d="
M309.158813,250.951843 
	C305.310059,249.707382 304.482208,246.879364 305.158569,243.846313 
	C305.480103,242.404572 307.319214,240.249313 308.433014,240.272034 
	C310.307648,240.310242 313.391479,241.472305 313.769623,242.791458 
	C314.779083,246.312622 314.527893,250.118988 309.158813,250.951843 
z"/>
<path fill="#0B0B0B" opacity="1.000000" stroke="none" 
	d="
M408.922943,240.583466 
	C413.275208,239.209656 415.826019,240.521744 417.238129,244.855423 
	C412.853271,244.855423 408.846375,244.855423 403.586945,244.855423 
	C405.756134,243.019485 407.149506,241.840179 408.922943,240.583466 
z"/>
<path fill="#0B0B0B" opacity="1.000000" stroke="none" 
	d="
M283.832031,245.082733 
	C280.916290,245.091125 278.442688,245.091125 275.969116,245.091125 
	C275.734741,244.604218 275.500366,244.117310 275.265961,243.630402 
	C277.591949,242.409164 279.863098,240.379776 282.260956,240.216949 
	C284.255829,240.081482 286.399689,242.139053 288.477539,243.225220 
	C288.292694,243.757278 288.107819,244.289322 287.922974,244.821365 
	C286.706696,244.905685 285.490448,244.990005 283.832031,245.082733 
z"/>
<path fill="#0B0B0B" opacity="1.000000" stroke="none" 
	d="
M353.190979,257.380157 
	C356.543518,255.176071 359.848419,253.373352 363.382355,251.445740 
	C364.999329,256.721436 364.336182,260.022064 359.291229,260.975891 
	C356.492249,261.505096 353.403839,262.277588 353.190979,257.380157 
z"/>
<path fill="#F4E205" opacity="1.000000" stroke="none" 
	d="
M117.056259,215.919312 
	C120.481705,221.060028 123.987984,226.192413 127.226181,231.488693 
	C127.999001,232.752670 127.877151,234.563644 128.346710,237.091705 
	C120.542076,231.834717 113.599258,227.158218 106.321564,222.256165 
	C108.004585,217.963821 111.370163,215.823029 116.717300,215.932251 
	C117.136482,215.922226 117.038902,215.971008 117.056259,215.919312 
z"/>
</svg>